<svg width="26" height="26" viewBox="0 0 26 26" fill="none" xmlns="http://www.w3.org/2000/svg">
<path d="M2.16305 7.66075C2.50763 6.89503 2.97131 6.20588 3.48604 5.55077C5.043 3.57691 7.01686 2.18586 9.39909 1.39887C11.0752 0.845851 12.7938 0.667183 14.5549 0.845851C16.7628 1.06706 18.7579 1.82002 20.5361 3.14301C20.8594 3.38123 21.1699 3.64072 21.4719 3.90873C21.5825 4.00657 21.5698 4.05762 21.4719 4.1512C20.3829 5.23597 19.2981 6.32074 18.2134 7.41402C18.0943 7.53313 18.0304 7.48208 17.9411 7.397C17.1797 6.70785 16.3076 6.20588 15.3164 5.93363C13.3043 5.37635 11.3857 5.61032 9.58202 6.66106C8.05058 7.5544 6.99133 8.86463 6.33196 10.5067C6.29368 10.596 6.25965 10.6896 6.22562 10.7832C6.18733 10.7662 6.14479 10.7534 6.11076 10.7279C5.43863 10.2004 4.7665 9.67289 4.09011 9.14965C3.45627 8.64767 2.80966 8.15421 2.16305 7.66075Z" fill="#E94235"/>
<path d="M6.22987 15.6625C6.52339 16.4453 6.89775 17.1897 7.41248 17.8533C8.48874 19.2401 9.85853 20.2015 11.5771 20.5929C13.6573 21.0694 15.6354 20.7843 17.4732 19.6528C17.52 19.623 17.571 19.5975 17.6221 19.572C17.7327 19.7932 17.9624 19.8825 18.1411 20.0314C18.4346 20.2739 18.7324 20.5078 19.0301 20.7418C19.4981 21.1076 19.966 21.4692 20.4425 21.8266C20.8083 22.0988 21.1359 22.4179 21.5315 22.6433C20.7232 23.4218 19.8001 24.0259 18.7877 24.4981C16.7245 25.4595 14.5464 25.8126 12.2918 25.6169C8.3356 25.2723 5.23443 23.4218 2.9628 20.176C2.66077 19.7421 2.38426 19.2869 2.1673 18.802C2.26515 18.7254 2.35873 18.6488 2.45658 18.5723C3.14998 18.032 3.84763 17.496 4.54103 16.96C5.10256 16.5304 5.66834 16.0964 6.22987 15.6625Z" fill="#35A753"/>
<path d="M21.5315 22.6434C21.1359 22.4179 20.8083 22.0988 20.4425 21.8266C19.966 21.4735 19.4981 21.1077 19.0301 20.7418C18.7324 20.5078 18.4346 20.2739 18.1411 20.0314C17.9624 19.8868 17.7327 19.7932 17.6221 19.572C18.1113 19.1891 18.5835 18.7807 18.9621 18.2788C19.4896 17.5768 19.8384 16.7984 20.0256 15.9391C20.0639 15.7689 20.0213 15.7391 19.8597 15.7391C17.7624 15.7434 15.6652 15.7434 13.5638 15.7434C13.249 15.7434 13.2872 15.7902 13.283 15.4584C13.283 14.0035 13.283 12.5529 13.2787 11.098C13.2787 10.9321 13.317 10.8853 13.4914 10.8853C17.2562 10.8896 21.0167 10.8896 24.7815 10.8853C24.9602 10.8853 25.0027 10.9534 25.0283 11.1108C25.2112 12.2126 25.2622 13.3229 25.1899 14.4374C25.0325 16.9217 24.3178 19.2189 22.8119 21.231C22.4333 21.7458 22.0207 22.2307 21.5315 22.6434Z" fill="#4286F4"/>
<path d="M6.22987 15.6626C5.66834 16.0965 5.10256 16.5304 4.54103 16.9643C3.84338 17.5003 3.14998 18.0406 2.45658 18.5766C2.35873 18.6531 2.26515 18.7297 2.1673 18.8063C1.87803 18.2873 1.67384 17.7343 1.47816 17.177C1.308 16.6963 1.18889 16.1943 1.07403 15.6966C0.988949 15.318 0.929393 14.9351 0.895361 14.548C0.814535 13.6717 0.801773 12.7911 0.895361 11.9191C1.01022 10.8768 1.23568 9.85587 1.62279 8.87745C1.7887 8.46481 1.93759 8.04367 2.16305 7.65656C2.80966 8.15002 3.45626 8.64348 4.09862 9.1412C4.775 9.66444 5.44713 10.1962 6.11926 10.7194C6.1533 10.745 6.19584 10.7577 6.23412 10.7747C6.10225 11.2001 5.97888 11.6255 5.92358 12.0637C5.86403 12.5529 5.7832 13.0464 5.82999 13.5441C5.88955 14.1779 5.97463 14.8033 6.1533 15.4158C6.17882 15.5052 6.24688 15.569 6.22987 15.6626Z" fill="#FABB06"/>
</svg>
