<svg width="22" height="28" viewBox="0 0 22 28" fill="none" xmlns="http://www.w3.org/2000/svg">
<path d="M18.2937 15.0614C18.2732 11.709 21.0007 10.0949 21.1238 10.0122C19.5652 7.71517 17.1658 7.40477 16.325 7.38407C14.2947 7.17714 12.3465 8.60499 11.3006 8.60499C10.2547 8.60499 8.65512 7.40477 6.95298 7.44616C4.75866 7.48754 2.68738 8.77054 1.55946 10.7571C-0.778412 14.8337 0.96474 20.8142 3.20008 24.1044C4.328 25.7185 5.61998 27.5189 7.32212 27.4568C9.00375 27.3947 9.61898 26.3807 11.6287 26.3807C13.618 26.3807 14.2127 27.4568 15.9558 27.4154C17.7605 27.3947 18.8884 25.8013 19.9548 24.1665C21.2468 22.3248 21.7595 20.5038 21.78 20.4003C21.7595 20.4003 18.3347 19.0759 18.2937 15.0614Z" fill="black"/>
<path d="M14.992 5.2318C15.8943 4.09365 16.5096 2.56233 16.325 0.989624C15.033 1.0517 13.3924 1.90014 12.4695 2.9969C11.6492 3.96949 10.8904 5.58359 11.0955 7.09421C12.5721 7.19768 14.0691 6.34925 14.992 5.2318Z" fill="black"/>
</svg>
